<svg width="78" height="79" viewBox="0 0 78 79" fill="none" xmlns="http://www.w3.org/2000/svg">
<g clip-path="url(#clip0_1_270)">
<path d="M34.225 45.1326H4.8244C3.48009 45.1326 3.48009 43.1003 4.8244 43.1003H31.3762C32.8872 43.1003 32.889 40.8158 31.3762 40.8158H7.07683V7.14127H69.1087V40.8158H61.7551C60.2448 40.8158 60.2418 43.1003 61.7551 43.1003H71.7747C73.1184 43.1003 73.1184 45.1326 71.7747 45.1326H59.1105C57.6002 45.1326 57.5978 47.4177 59.1105 47.4177H71.7747C73.5945 47.4177 75.0751 45.9366 75.0751 44.1168C75.0751 42.2964 73.5945 40.8158 71.7747 40.8158H71.3939V7.14127H71.7747C73.5945 7.14127 75.0751 5.66008 75.0751 3.84029C75.0751 2.0199 73.5945 0.539307 71.7747 0.539307H4.8244C3.00401 0.539307 1.52342 2.0199 1.52342 3.84029C1.52342 5.64937 2.98676 7.12341 4.79167 7.14127V40.8158C2.98676 40.8336 1.52342 42.3071 1.52342 44.1168C1.52342 45.9366 3.00401 47.4177 4.8244 47.4177H34.225C35.7353 47.4177 35.7377 45.1326 34.225 45.1326ZM4.8244 2.82446H71.7747C73.1184 2.82446 73.1184 4.85611 71.7747 4.85611H4.8244C3.47949 4.85611 3.48128 2.82446 4.8244 2.82446Z" fill="#4C858B"/>
<path d="M21.1878 11.2742C21.1878 10.2709 20.3713 9.45499 19.368 9.45499H12.1953C11.192 9.45499 10.3761 10.2709 10.3761 11.2742V15.7052C10.3761 16.7086 11.192 17.5244 12.1953 17.5244H19.368C20.3713 17.5244 21.1878 16.7086 21.1878 15.7052V11.2742ZM18.9026 15.2393H12.6607V11.7395H18.9026V15.2393Z" fill="#4C858B"/>
<path d="M21.1878 21.8627C21.1878 20.8594 20.3713 20.0435 19.368 20.0435H12.1953C11.192 20.0435 10.3761 20.8594 10.3761 21.8627V26.2938C10.3761 27.2971 11.192 28.113 12.1953 28.113H19.368C20.3713 28.113 21.1878 27.2971 21.1878 26.2938V21.8627ZM18.9026 25.8278H12.6607V22.3281H18.9026V25.8278Z" fill="#4C858B"/>
<path d="M19.368 30.6319H12.1953C11.192 30.6319 10.3761 31.4477 10.3761 32.4511V36.8821C10.3761 37.8855 11.192 38.7013 12.1953 38.7013H19.368C20.3713 38.7013 21.1878 37.8855 21.1878 36.8821V32.4511C21.1878 31.4477 20.3713 30.6319 19.368 30.6319ZM18.9026 36.4168H12.6607V32.9164H18.9026V36.4168Z" fill="#4C858B"/>
<path d="M69.5224 52.4552C68.2781 51.9202 66.973 51.5382 65.6436 51.2793L54.0672 49.0287V46.1681C57.3182 43.9507 59.0779 40.8098 59.4612 37.2827C61.1483 37.1488 62.4807 35.7331 62.4807 34.0121V31.6639C65.2318 30.4677 64.8599 26.4532 61.9493 25.776V24.8691C61.9493 16.7217 55.3443 10.1161 47.1963 10.1161H45.9597C37.8117 10.1161 31.2068 16.7217 31.2068 24.8691V25.7754C28.2973 26.4526 27.9242 30.4677 30.6759 31.6639V34.0115C30.6759 35.7331 32.0078 37.1488 33.6954 37.2821C34.0769 40.7932 35.8152 43.9347 39.0894 46.1681V49.0281L27.513 51.2793C26.1836 51.5382 24.8785 51.9196 23.6342 52.4552C18.9371 54.4767 16.6454 57.7039 16.6454 62.2623V64.6094C16.6454 66.1197 18.93 66.1221 18.93 64.6094V62.2629C18.93 58.8394 20.4856 56.4721 23.8978 54.8368C24.0353 55.445 26.1288 61.1275 26.1288 69.0672V76.2548H21.3008C19.9916 76.2548 18.93 75.1931 18.93 73.8839V69.1553C18.93 67.645 16.6454 67.6426 16.6454 69.1553V73.8839C16.6454 76.4553 18.7294 78.5393 21.3008 78.5393H71.8558C74.4272 78.5393 76.5112 76.4553 76.5112 73.8839V62.2629C76.5112 57.7039 74.2189 54.4767 69.5224 52.4552ZM67.1283 53.9876C66.9695 54.685 64.7426 60.68 64.7426 69.0672V76.2548H47.7206V70.4984C47.7206 68.7869 48.2413 67.1421 49.2262 65.7424C50.7014 63.6447 56.7779 54.8772 58.5798 52.2338C66.7814 53.8852 65.7924 53.543 67.1283 53.9876ZM45.799 64.4273C44.9225 63.1812 43.784 61.5459 42.5956 59.832C42.9485 59.754 43.2931 59.6183 43.6162 59.4249L46.578 57.6486L49.5398 59.4249C49.8629 59.6183 50.2075 59.754 50.5604 59.832C49.3732 61.5453 48.2347 63.18 47.3576 64.4273C47.0654 64.8427 46.8053 65.2747 46.578 65.7204C46.3513 65.2747 46.0912 64.8427 45.799 64.4273ZM44.2458 56.3828C42.4368 57.3516 42.5653 57.6414 41.7435 57.5439C41.2323 57.4832 40.7735 57.1987 40.4807 56.775C39.1149 54.7969 37.8504 52.9616 37.0226 51.7578L39.3107 51.3132C40.0498 53.5579 42.4856 55.3432 44.2458 56.3828ZM56.134 51.7584C55.3039 52.9646 54.0363 54.8052 52.667 56.7881C52.1082 57.5962 51.1067 57.6998 50.7151 57.4647L48.9102 56.3828C50.6711 55.3432 53.1062 53.5579 53.8453 51.3132L56.134 51.7584ZM39.9237 13.9622V15.3952C39.9237 16.9056 42.2082 16.9079 42.2082 15.3952V12.978C43.2336 12.6536 44.3161 12.459 45.436 12.4126V18.0618C45.436 19.5722 47.7206 19.5746 47.7206 18.0618V12.4126C48.8405 12.459 49.923 12.6542 50.9478 12.978V15.3952C50.9478 16.9056 53.2329 16.9079 53.2329 15.3952V13.9628C60.3752 17.9309 59.6159 25.5148 59.6647 25.6957H33.4919C33.5312 25.5487 32.8183 17.9107 39.9237 13.9622ZM31.9125 27.9802H61.2441C62.3396 27.9802 62.3378 29.6352 61.2441 29.6352H31.9125C30.817 29.6352 30.8188 27.9802 31.9125 27.9802ZM35.908 36.1259C35.8943 35.5046 35.3873 35.0083 34.7654 35.0083C34.575 34.9607 32.9611 35.3046 32.9611 34.0121V31.9203H60.1961V34.0121C60.1961 35.3029 58.5382 34.9714 58.3912 35.0083C57.7693 35.0083 57.2617 35.5046 57.2486 36.1259C57.1873 38.9823 55.9739 41.6352 53.9185 43.4044C49.5553 47.1613 43.6019 47.1619 39.2381 43.4044C37.1827 41.6352 35.9687 38.9817 35.908 36.1259ZM51.7821 47.4297V49.9701C51.7821 52.0131 48.3151 54.1762 46.578 55.0504C44.8427 54.1768 41.3834 52.019 41.3739 49.9784C41.3739 49.9761 41.3739 49.9731 41.3739 49.9701V47.4297C44.6993 48.8638 48.4531 48.8656 51.7821 47.4297ZM26.0283 53.9876C27.3625 53.5442 26.371 53.8858 34.5762 52.2338L35.229 53.1824C35.8949 54.1506 36.8167 55.489 37.8385 56.9696C39.7023 59.6713 42.2731 63.3865 43.9304 65.7419C44.9153 67.1421 45.436 68.7863 45.436 70.4984V76.2542H28.414V69.0666C28.414 60.464 26.2413 54.9254 26.0283 53.9876ZM74.226 73.8839C74.226 75.1907 73.1632 76.2542 71.8558 76.2542H67.0278V69.0672C67.0278 61.3453 69.1743 55.2105 69.2594 54.8368C72.671 56.4721 74.2266 58.8394 74.2266 62.2629V73.8839H74.226Z" fill="#4C858B"/>
<path d="M52.8062 66.6236C51.7291 66.6236 50.8525 67.5002 50.8525 68.5773V70.8666C50.8525 71.9444 51.7291 72.8203 52.8062 72.8203H59.5254C60.6025 72.8203 61.4791 71.9444 61.4791 70.8666V68.5773C61.4791 67.5002 60.6025 66.6236 59.5254 66.6236H52.8062ZM59.1939 70.5352H53.1377V68.9088H59.1939V70.5352Z" fill="#4C858B"/>
</g>
<defs>
<clipPath id="clip0_1_270">
<rect width="78" height="78" fill="white" transform="translate(0 0.539307)"/>
</clipPath>
</defs>
</svg>
