<svg width="77" height="78" viewBox="0 0 77 78" fill="none" xmlns="http://www.w3.org/2000/svg">
<g clip-path="url(#clip0_1_236)">
<path d="M8.19933 7.35968C7.36902 7.35968 6.69557 8.03298 6.69557 8.86344C6.69557 9.69389 7.36887 10.3672 8.19933 10.3672H8.21437C9.04467 10.3672 9.7106 9.69389 9.7106 8.86344C9.7106 8.03298 9.02978 7.35968 8.19933 7.35968Z" fill="#4C858B"/>
<path d="M15.4101 7.35968C14.5797 7.35968 13.9063 8.03298 13.9063 8.86344C13.9063 9.69389 14.5796 10.3672 15.4101 10.3672H15.4249C16.2552 10.3672 16.9213 9.69389 16.9213 8.86344C16.9213 8.03298 16.2405 7.35968 15.4101 7.35968Z" fill="#4C858B"/>
<path d="M22.62 7.35968C21.7897 7.35968 21.1162 8.03298 21.1162 8.86344C21.1162 9.69389 21.7895 10.3672 22.62 10.3672H22.6349C23.4652 10.3672 24.1311 9.69389 24.1311 8.86344C24.1311 8.03298 23.4504 7.35968 22.62 7.35968Z" fill="#4C858B"/>
<path d="M59.5048 7.35968H41.2562C40.4259 7.35968 39.7525 8.03298 39.7525 8.86344C39.7525 9.69389 40.4258 10.3672 41.2562 10.3672H59.5048C60.3351 10.3672 61.0085 9.69389 61.0085 8.86344C61.0085 8.03298 60.3351 7.35968 59.5048 7.35968Z" fill="#4C858B"/>
<path d="M35.1777 60.2311C34.8978 59.9514 34.5099 59.7905 34.1146 59.7905C33.7192 59.7905 33.3312 59.9514 33.0516 60.2311C32.7719 60.5109 32.6108 60.8989 32.6108 61.2943C32.6108 61.6896 32.7717 62.0776 33.0516 62.3572C33.3312 62.6369 33.719 62.798 34.1146 62.798C34.5101 62.798 34.898 62.6371 35.1777 62.3572C35.4574 62.0776 35.6183 61.6898 35.6183 61.2943C35.6183 60.8987 35.4574 60.5109 35.1777 60.2311Z" fill="#4C858B"/>
<path d="M68.8798 19.8305V8.06242C68.8798 3.9166 65.507 0.543793 61.3612 0.543793H7.51863C3.37281 0.543793 0 3.91675 0 8.06257V55.5759C0 59.5584 3.23987 62.7983 7.22221 62.7983H12.8658V63.0424C12.8658 63.5569 12.4996 64.0031 11.9952 64.1035L6.32814 65.2327C3.17881 65.8604 0.828953 68.4268 0.480949 71.6191L0.0175957 75.8683C-0.0287246 76.293 0.10798 76.7172 0.393121 77.0353C0.678262 77.3534 1.08537 77.5351 1.51248 77.5351H34.1146C34.5419 77.5351 34.949 77.3532 35.2341 77.0352C35.5193 76.7171 35.6558 76.2927 35.6093 75.868L35.1448 71.6175C34.796 68.4259 32.4463 65.8602 29.2979 65.2328L23.6298 64.1035C23.1253 64.0031 22.7592 63.5567 22.7592 63.0424V61.6304C22.7592 61.6227 22.7582 61.6153 22.758 61.6076L25.3067 60.1507C25.3348 60.1347 25.3622 60.1177 25.3891 60.1C26.7557 59.1975 27.6531 57.5904 27.7898 55.8009C27.7928 55.7627 27.7941 55.7245 27.7941 55.6863V49.5194C28.6927 48.9341 29.3487 47.8699 29.3487 46.0072L29.3511 42.6282C29.3511 42.5723 29.3481 42.5171 29.3421 42.4626C29.1881 39.4868 26.7652 37.1753 23.7682 37.1753H10.9895C10.4285 37.1753 9.90788 36.8782 9.56981 36.629C8.93651 36.1622 8.10831 36.0921 7.40764 36.4461C6.70968 36.7988 6.2761 37.5039 6.2761 38.2867V43.1795C6.2761 44.8415 6.86037 46.369 7.8331 47.5699V55.6863C7.8331 55.7245 7.8346 55.7627 7.83746 55.8009C7.95942 57.3973 8.69754 58.8511 9.83855 59.7906H7.22221C4.89822 59.7909 3.00736 57.9002 3.00736 55.5759V24.0125H19.8006C20.6309 24.0125 21.3043 23.3392 21.3043 22.5088C21.3043 21.6783 20.631 21.005 19.8006 21.005H3.00751V16.7945H65.8724V19.789H41.4619C36.5147 19.789 32.4896 23.8139 32.4896 28.7611V41.3475C32.4896 46.2947 36.5147 50.3196 41.4619 50.3196H43.3417V54.7163C43.3417 55.3246 43.7082 55.8728 44.2699 56.1056C44.4559 56.1826 44.6514 56.2201 44.8451 56.2201C45.2366 56.2201 45.621 56.0673 45.9087 55.7796L51.3686 50.3195H65.8726V55.5758C65.8726 57.8999 63.9817 59.7908 61.6576 59.7908H40.2339C39.4035 59.7908 38.7301 60.4641 38.7301 61.2945C38.7301 62.125 39.4034 62.7983 40.2339 62.7983H61.6574C65.6399 62.7983 68.8798 59.5583 68.8798 55.5759V50.2783C73.4288 49.8474 77 46.0075 77 41.3476V28.7613C77 24.1014 73.4288 20.2614 68.8798 19.8305ZM23.7319 67.1906L28.7105 68.1824C30.5658 68.5519 31.95 70.0637 32.1556 71.944L32.4379 74.5274H3.18933L3.47102 71.945C3.676 70.064 5.06049 68.5519 6.91601 68.1823L11.895 67.1903C13.5278 68.6449 15.6092 69.4412 17.8136 69.4412C20.018 69.4412 22.0993 68.6447 23.7319 67.1906ZM14.91 65.6711C15.4582 65.0193 15.8023 64.1986 15.8612 63.3122C16.4831 63.617 17.1481 63.7719 17.8136 63.7719C18.4783 63.7721 19.1425 63.6175 19.764 63.3132C19.8231 64.1996 20.1677 65.0202 20.7159 65.672C19.8401 66.1681 18.8476 66.4335 17.8136 66.4335C16.7794 66.4335 15.7864 66.1676 14.91 65.6711ZM24.7869 55.6238C24.7111 56.4432 24.324 57.1803 23.7661 57.5676L18.7142 60.4555C18.686 60.4714 18.6587 60.4884 18.6317 60.5062C18.1117 60.8495 17.5154 60.8494 16.9956 60.5062C16.9693 60.4889 16.9424 60.4722 16.915 60.4566L11.8772 57.5679C11.3094 57.1749 10.9163 56.4375 10.8405 55.6236V49.7336C11.5956 50.0137 12.4119 50.1673 13.2633 50.1673H24.7869V55.6238ZM9.28361 43.1798V39.8684C9.84562 40.0761 10.4201 40.183 10.9898 40.183H23.7685C25.1715 40.183 26.3018 41.2813 26.3415 42.6835C26.342 42.7002 26.3429 42.7171 26.3439 42.7338L26.3415 46.0063C26.3415 46.0066 26.3415 46.007 26.3415 46.0073C26.3415 46.7686 26.186 46.961 26.1683 46.9805C26.1075 47.047 25.8442 47.1596 25.2429 47.1596H13.2634C11.0688 47.1596 9.28361 45.3745 9.28361 43.1798ZM3.00751 13.7872V8.06257C3.00751 5.57511 5.03117 3.55145 7.51863 3.55145H61.3612C63.8486 3.55145 65.8723 5.57511 65.8723 8.06257V13.7873H3.00751V13.7872ZM73.9925 41.3476C73.9925 44.6365 71.3166 47.3123 68.0277 47.3123H50.7454C50.3466 47.3123 49.9643 47.4708 49.6821 47.7528L46.349 51.086V48.816C46.349 47.9857 45.6757 47.3123 44.8453 47.3123H41.4619C38.1731 47.3123 35.4972 44.6365 35.4972 41.3476V28.7613C35.4972 25.4724 38.1731 22.7966 41.4619 22.7966H68.0277C71.3166 22.7966 73.9925 25.4724 73.9925 28.7613V41.3476Z" fill="#4C858B"/>
<path d="M42.7148 30.4858C40.2273 30.4858 38.2035 32.5095 38.2035 34.997C38.2035 37.4844 40.2272 39.5081 42.7148 39.5081C45.2023 39.5081 47.2259 37.4844 47.2259 34.997C47.2259 32.5095 45.2023 30.4858 42.7148 30.4858ZM42.7148 36.5007C41.8857 36.5007 41.211 35.8262 41.211 34.997C41.211 34.1679 41.8855 33.4932 42.7148 33.4932C43.5441 33.4932 44.2186 34.1677 44.2186 34.997C44.2186 35.8262 43.5437 36.5007 42.7148 36.5007Z" fill="#4C858B"/>
<path d="M54.7442 30.4858C52.2568 30.4858 50.2331 32.5095 50.2331 34.997C50.2331 37.4844 52.2568 39.5081 54.7442 39.5081C57.2317 39.5081 59.2553 37.4844 59.2553 34.997C59.2553 32.5095 57.2317 30.4858 54.7442 30.4858ZM54.7442 36.5007C53.9151 36.5007 53.2405 35.8262 53.2405 34.997C53.2405 34.1679 53.915 33.4932 54.7442 33.4932C55.5735 33.4932 56.248 34.1677 56.248 34.997C56.248 35.8262 55.5733 36.5007 54.7442 36.5007Z" fill="#4C858B"/>
<path d="M66.7745 30.4858C64.2871 30.4858 62.2634 32.5095 62.2634 34.997C62.2634 37.4844 64.2871 39.5081 66.7745 39.5081C69.262 39.5081 71.2858 37.4844 71.2858 34.997C71.2858 32.5095 69.262 30.4858 66.7745 30.4858ZM66.7745 36.5007C65.9454 36.5007 65.2708 35.8262 65.2708 34.997C65.2708 34.1679 65.9453 33.4932 66.7745 33.4932C67.6037 33.4932 68.2783 34.1677 68.2783 34.997C68.2783 35.8262 67.6035 36.5007 66.7745 36.5007Z" fill="#4C858B"/>
<path d="M26.5024 21.4456C26.2228 21.1659 25.8349 21.0048 25.4394 21.0048C25.0439 21.0048 24.6562 21.1657 24.3763 21.4456C24.0966 21.7252 23.9356 22.1117 23.9356 22.5085C23.9356 22.9042 24.0964 23.2921 24.3763 23.5717C24.656 23.8514 25.0439 24.0123 25.4394 24.0123C25.8364 24.0123 26.2228 23.8515 26.5024 23.5717C26.7836 23.2921 26.9432 22.9042 26.9432 22.5085C26.9432 22.1132 26.7836 21.7252 26.5024 21.4456Z" fill="#4C858B"/>
</g>
<defs>
<clipPath id="clip0_1_236">
<rect width="77" height="77" fill="white" transform="translate(0 0.539307)"/>
</clipPath>
</defs>
</svg>
