<svg width="79" height="80" viewBox="0 0 79 80" fill="none" xmlns="http://www.w3.org/2000/svg">
<g clip-path="url(#clip0_1_280)">
<path d="M77.7256 0.539307H6.37095C5.6679 0.539307 5.09676 1.11045 5.09676 1.8135V5.63606H1.27419C0.571146 5.63606 0 6.20721 0 6.91025V57.8778C0 58.5827 0.571146 59.152 1.27419 59.152H26.1476C27.3609 60.6185 28.8721 61.8254 30.5806 62.7021V78.2648C30.5806 78.7794 30.8916 79.246 31.367 79.442C31.8423 79.6398 32.3898 79.5303 32.7556 79.1657L36.9515 74.9699L41.1474 79.1657C41.3906 79.409 41.7173 79.539 42.0483 79.539C42.2125 79.539 42.3786 79.5086 42.5367 79.442C43.0114 79.246 43.3224 78.7794 43.3224 78.2648V62.7021C45.0303 61.8254 46.5409 60.6197 47.7554 59.152H72.6288C73.3325 59.152 73.903 58.5827 73.903 57.8778V54.0553H77.7256C78.4292 54.0553 78.9998 53.486 78.9998 52.7811V1.8135C78.9998 1.11045 78.4292 0.539307 77.7256 0.539307ZM40.7741 75.1889L37.8524 72.2672C37.354 71.7689 36.549 71.7689 36.0506 72.2672L33.1289 75.1889V63.7062C34.3459 64.0515 35.625 64.2488 36.9515 64.2488C38.278 64.2488 39.5571 64.0515 40.7741 63.7062V75.1889ZM36.9515 61.7004C30.6291 61.7004 25.4838 56.5563 25.4838 50.2327C25.4838 43.909 30.6291 38.765 36.9515 38.765C43.2739 38.765 48.4192 43.909 48.4192 50.2327C48.4192 56.5563 43.2739 61.7004 36.9515 61.7004ZM23.0007 51.5069H15.2001C14.6395 47.6053 11.5455 44.5131 7.64514 43.952V20.8361C11.5455 20.2749 14.6395 17.1815 15.2001 13.2812H58.7048C59.2654 17.1815 62.3588 20.2749 66.2591 20.8361V43.9532C62.3588 44.5131 59.2654 47.6065 58.7048 51.5081H50.9041C50.9408 51.0863 50.9676 50.6632 50.9676 50.2327C50.9676 42.5048 44.6794 36.2166 36.9515 36.2166C29.2236 36.2166 22.9354 42.5048 22.9354 50.2327C22.9354 50.6632 22.9622 51.0863 23.0007 51.5069ZM71.3546 56.6036H49.4209C49.8353 55.7961 50.1725 54.9449 50.4251 54.0553H59.8869C60.5906 54.0553 61.1611 53.486 61.1611 52.7811C61.1611 49.2683 64.0193 46.4101 67.5321 46.4101C68.2357 46.4101 68.8062 45.8408 68.8062 45.1359V19.6521C68.8062 18.9491 68.2357 18.378 67.5321 18.378C64.0193 18.378 61.1611 15.5197 61.1611 12.007C61.1611 11.304 60.5906 10.7328 59.8869 10.7328H14.0161C13.313 10.7328 12.7419 11.304 12.7419 12.007C12.7419 15.5197 9.8843 18.378 6.37095 18.378C5.6679 18.378 5.09676 18.9491 5.09676 19.6521V45.1359C5.09676 45.8408 5.6679 46.4101 6.37095 46.4101C9.8843 46.4101 12.7419 49.2683 12.7419 52.7811C12.7419 53.486 13.313 54.0553 14.0161 54.0553H23.4786C23.7305 54.9449 24.0684 55.7961 24.4821 56.6036H2.54838V8.18444H71.3546V56.6036ZM76.4514 51.5069H73.903V6.91025C73.903 6.20721 73.3325 5.63606 72.6288 5.63606H7.64514V3.08769H76.4514V51.5069Z" fill="#4C858B"/>
<path d="M36.9517 41.3135C32.0335 41.3135 28.0323 45.3159 28.0323 50.2329H30.5807C30.5807 46.7202 33.439 43.8619 36.9517 43.8619V41.3135Z" fill="#4C858B"/>
<path d="M43.3227 50.2328C43.3227 53.7456 40.4651 56.6038 36.9517 56.6038V59.1522C41.8699 59.1522 45.8711 55.1498 45.8711 50.2328H43.3227Z" fill="#4C858B"/>
<path d="M56.0646 22.2006V17.1038C56.0646 16.4008 55.494 15.8296 54.7904 15.8296H19.1129C18.4099 15.8296 17.8387 16.4008 17.8387 17.1038V22.2006C17.8387 22.9036 18.4099 23.4748 19.1129 23.4748H54.7904C55.494 23.4748 56.0646 22.9036 56.0646 22.2006ZM53.5162 20.9264H20.3871V18.378H53.5162V20.9264Z" fill="#4C858B"/>
<path d="M10.1936 26.0231H20.3871V28.5715H10.1936V26.0231Z" fill="#4C858B"/>
<path d="M10.1936 31.1199H20.3871V33.6683H10.1936V31.1199Z" fill="#4C858B"/>
<path d="M22.9355 31.1199H63.7097V33.6683H22.9355V31.1199Z" fill="#4C858B"/>
<path d="M22.9355 26.0231H63.7097V28.5715H22.9355V26.0231Z" fill="#4C858B"/>
</g>
<defs>
<clipPath id="clip0_1_280">
<rect width="79" height="79" fill="white" transform="translate(0 0.539307)"/>
</clipPath>
</defs>
</svg>
