<svg width="23" height="22" viewBox="0 0 23 22" fill="none" xmlns="http://www.w3.org/2000/svg">
<g clip-path="url(#clip0_826_29)">
<path d="M21.5833 0.916748H1.41668C0.910405 0.916748 0.5 1.32715 0.5 1.83338C0.5 2.3396 0.910405 2.75006 1.41668 2.75006H21.5833C22.0896 2.75006 22.5 2.33966 22.5 1.83338C22.5 1.3271 22.0896 0.916748 21.5833 0.916748Z" fill="#4C858B"/>
<path d="M21.5833 10.0833H1.41668C0.910405 10.0833 0.5 10.4937 0.5 10.9999C0.5 11.5062 0.910405 11.9166 1.41668 11.9166H21.5833C22.0896 11.9166 22.5 11.5062 22.5 10.9999C22.5 10.4937 22.0896 10.0833 21.5833 10.0833Z" fill="#4C858B"/>
<path d="M21.5833 19.25H1.41668C0.910405 19.25 0.5 19.6604 0.5 20.1667C0.5 20.673 0.910405 21.0834 1.41668 21.0834H21.5833C22.0896 21.0834 22.5 20.673 22.5 20.1667C22.5 19.6604 22.0896 19.25 21.5833 19.25Z" fill="#4C858B"/>
</g>
<defs>
<clipPath id="clip0_826_29">
<rect width="22" height="22" fill="white" transform="translate(0.5)"/>
</clipPath>
</defs>
</svg>
