<svg width="24" height="23" viewBox="0 0 24 23" fill="none" xmlns="http://www.w3.org/2000/svg">
<g clip-path="url(#clip0_826_19)">
<path d="M12 21.7204C11.6725 21.7204 11.3569 21.6018 11.1108 21.3863C10.1817 20.5739 9.28589 19.8104 8.49555 19.1369L8.49152 19.1334C6.17436 17.1588 4.17341 15.4535 2.78118 13.7736C1.22489 11.8957 0.5 10.1151 0.5 8.16999C0.5 6.28011 1.14803 4.53658 2.3246 3.26035C3.5152 1.96902 5.14888 1.25781 6.92522 1.25781C8.25287 1.25781 9.46874 1.67755 10.539 2.50527C11.0791 2.92308 11.5687 3.43442 12 4.03086C12.4315 3.43442 12.9209 2.92308 13.4612 2.50527C14.5314 1.67755 15.7473 1.25781 17.0749 1.25781C18.8511 1.25781 20.4849 1.96902 21.6755 3.26035C22.8521 4.53658 23.5 6.28011 23.5 8.16999C23.5 10.1151 22.7752 11.8957 21.2189 13.7735C19.8267 15.4535 17.8259 17.1586 15.5091 19.133C14.7174 19.8076 13.8202 20.5723 12.8889 21.3867C12.6431 21.6018 12.3272 21.7204 12 21.7204ZM6.92522 2.60512C5.52966 2.60512 4.24764 3.16208 3.31498 4.17352C2.36847 5.20023 1.84713 6.61948 1.84713 8.16999C1.84713 9.80595 2.45515 11.2691 3.81842 12.914C5.13607 14.504 7.09596 16.1742 9.36521 18.1081L9.36942 18.1116C10.1627 18.7877 11.0621 19.5542 11.998 20.3726C12.9397 19.5526 13.8404 18.7849 14.6353 18.1077C16.9044 16.1738 18.8641 14.504 20.1817 12.914C21.5448 11.2691 22.1528 9.80595 22.1528 8.16999C22.1528 6.61948 21.6315 5.20023 20.685 4.17352C19.7525 3.16208 18.4703 2.60512 17.0749 2.60512C16.0526 2.60512 15.114 2.9301 14.2852 3.57094C13.5466 4.14229 13.0321 4.86455 12.7305 5.36992C12.5754 5.6298 12.3023 5.78492 12 5.78492C11.6976 5.78492 11.4246 5.6298 11.2695 5.36992C10.968 4.86455 10.4535 4.14229 9.71476 3.57094C8.88599 2.9301 7.94737 2.60512 6.92522 2.60512Z" fill="#E33E54"/>
</g>
<defs>
<clipPath id="clip0_826_19">
<rect width="23" height="23" fill="white" transform="translate(0.5)"/>
</clipPath>
</defs>
</svg>
