<svg width="23" height="22" viewBox="0 0 23 22" fill="none" xmlns="http://www.w3.org/2000/svg">
<g clip-path="url(#clip0_826_23)">
<path d="M22.2312 20.4351L15.975 14.1789C17.1868 12.682 17.9165 10.7799 17.9165 8.70826C17.9165 3.90681 14.0097 0 9.20822 0C4.40677 0 0.5 3.90677 0.5 8.70822C0.5 13.5097 4.40681 17.4165 9.20826 17.4165C11.2799 17.4165 13.182 16.6868 14.6789 15.475L20.9351 21.7312C21.1138 21.9099 21.3484 21.9998 21.5831 21.9998C21.8178 21.9998 22.0525 21.9099 22.2312 21.7312C22.5896 21.3728 22.5896 20.7934 22.2312 20.4351ZM9.20826 15.5832C5.41695 15.5832 2.33333 12.4995 2.33333 8.70822C2.33333 4.91691 5.41695 1.83329 9.20826 1.83329C12.9996 1.83329 16.0832 4.91691 16.0832 8.70822C16.0832 12.4995 12.9995 15.5832 9.20826 15.5832Z" fill="#4C858B"/>
</g>
<defs>
<clipPath id="clip0_826_23">
<rect width="22" height="22" fill="white" transform="translate(0.5)"/>
</clipPath>
</defs>
</svg>
