<svg width="33" height="31" viewBox="0 0 33 31" fill="none" xmlns="http://www.w3.org/2000/svg">
<g clip-path="url(#clip0_826_12)" filter="url(#filter0_d_826_12)">
<path d="M28.1437 8.67485C27.8268 8.27726 27.3513 8.04917 26.8392 8.04917H22.2171L19.7108 2.31012C19.5554 1.95429 19.1409 1.79168 18.785 1.94717C18.4291 2.10256 18.2666 2.51707 18.4221 2.87295L20.6826 8.04921H12.3174L14.5779 2.87295C14.7333 2.51707 14.5709 2.1026 14.215 1.94717C13.8592 1.79168 13.4446 1.9542 13.2893 2.31012L10.7829 8.04921H6.16083C5.64867 8.04921 5.17322 8.27726 4.8563 8.6749C4.54519 9.06528 4.43039 9.56712 4.54135 10.0519L7.00964 20.8332C7.182 21.586 7.84796 22.1117 8.62913 22.1117H24.3709C25.1521 22.1117 25.818 21.586 25.9904 20.8332L28.4587 10.0519C28.5696 9.56707 28.4548 9.06523 28.1437 8.67485ZM24.3709 20.7054H8.62913C8.50974 20.7054 8.40516 20.6271 8.38046 20.5192L5.91216 9.73807C5.8928 9.65346 5.92528 9.58981 5.95603 9.55132C5.98453 9.51551 6.04908 9.45546 6.16083 9.45546H10.1688L9.98461 9.8772C9.82922 10.2331 9.99169 10.6475 10.3476 10.803C10.4392 10.843 10.5346 10.8619 10.6286 10.8619C10.8996 10.8619 11.1579 10.7043 11.2733 10.4401L11.7033 9.45556H21.2968L21.7268 10.4401C21.8422 10.7044 22.1005 10.8619 22.3715 10.8619C22.4655 10.8619 22.5609 10.843 22.6525 10.803C23.0084 10.6476 23.1709 10.2331 23.0155 9.8772L22.8313 9.45546H26.8393C26.951 9.45546 27.0156 9.51551 27.0441 9.55132C27.0748 9.58985 27.1073 9.65351 27.0879 9.73803L24.6196 20.5193C24.5949 20.6271 24.4903 20.7054 24.3709 20.7054Z" fill="black"/>
<path d="M12.2812 12.5024C11.8929 12.5024 11.5781 12.8173 11.5781 13.2056V18.3618C11.5781 18.7501 11.8929 19.0649 12.2812 19.0649C12.6696 19.0649 12.9844 18.7501 12.9844 18.3618V13.2056C12.9844 12.8173 12.6696 12.5024 12.2812 12.5024Z" fill="black"/>
<path d="M16.5 12.5024C16.1117 12.5024 15.7969 12.8173 15.7969 13.2056V18.3618C15.7969 18.7501 16.1117 19.0649 16.5 19.0649C16.8883 19.0649 17.2031 18.7501 17.2031 18.3618V13.2056C17.2031 12.8173 16.8883 12.5024 16.5 12.5024Z" fill="black"/>
<path d="M20.7188 12.5024C20.3304 12.5024 20.0156 12.8173 20.0156 13.2056V18.3618C20.0156 18.7501 20.3304 19.0649 20.7188 19.0649C21.1071 19.0649 21.4219 18.7501 21.4219 18.3618V13.2056C21.4218 12.8173 21.1071 12.5024 20.7188 12.5024Z" fill="black"/>
</g>
<defs>
<filter id="filter0_d_826_12" x="0.5" y="0" width="32" height="32" filterUnits="userSpaceOnUse" color-interpolation-filters="sRGB">
<feFlood flood-opacity="0" result="BackgroundImageFix"/>
<feColorMatrix in="SourceAlpha" type="matrix" values="0 0 0 0 0 0 0 0 0 0 0 0 0 0 0 0 0 0 127 0" result="hardAlpha"/>
<feOffset dy="4"/>
<feGaussianBlur stdDeviation="2"/>
<feComposite in2="hardAlpha" operator="out"/>
<feColorMatrix type="matrix" values="0 0 0 0 0 0 0 0 0 0 0 0 0 0 0 0 0 0 0.25 0"/>
<feBlend mode="normal" in2="BackgroundImageFix" result="effect1_dropShadow_826_12"/>
<feBlend mode="normal" in="SourceGraphic" in2="effect1_dropShadow_826_12" result="shape"/>
</filter>
<clipPath id="clip0_826_12">
<rect width="24" height="24" fill="white" transform="translate(4.5)"/>
</clipPath>
</defs>
</svg>
